<mxfile host="app.diagrams.net" modified="2020-08-05T22:12:25.743Z" agent="5.0 (Macintosh; Intel Mac OS X 10_15_6) AppleWebKit/605.1.15 (KHTML, like Gecko) Version/13.1.2 Safari/605.1.15" etag="y6hkEqVQ8TVPSCEWAFhk" version="13.6.0" type="github">
  <diagram id="8Mv18OBPk40gCOwCrwm8" name="Page-1">
    <mxGraphModel dx="529" dy="566" grid="1" gridSize="10" guides="1" tooltips="1" connect="1" arrows="1" fold="1" page="1" pageScale="1" pageWidth="827" pageHeight="1169" math="0" shadow="0">
      <root>
        <mxCell id="0" />
        <mxCell id="1" parent="0" />
        <mxCell id="dWN9boZSqBaFcRG3zX7V-1" value="POST&lt;br&gt;されているか" style="rhombus;whiteSpace=wrap;html=1;shadow=0;fontFamily=Helvetica;fontSize=12;align=center;strokeWidth=1;spacing=6;spacingTop=-4;" vertex="1" parent="1">
          <mxGeometry x="610" y="452" width="100" height="80" as="geometry" />
        </mxCell>
        <mxCell id="dWN9boZSqBaFcRG3zX7V-2" value="function.php" style="shape=parallelogram;perimeter=parallelogramPerimeter;whiteSpace=wrap;html=1;" vertex="1" parent="1">
          <mxGeometry x="609" y="340" width="120" height="60" as="geometry" />
        </mxCell>
        <mxCell id="dWN9boZSqBaFcRG3zX7V-3" style="edgeStyle=orthogonalEdgeStyle;rounded=0;orthogonalLoop=1;jettySize=auto;html=1;exitX=0.5;exitY=1;exitDx=0;exitDy=0;entryX=0.5;entryY=0;entryDx=0;entryDy=0;" edge="1" parent="1" source="dWN9boZSqBaFcRG3zX7V-4">
          <mxGeometry relative="1" as="geometry">
            <mxPoint x="660" y="679" as="targetPoint" />
          </mxGeometry>
        </mxCell>
        <mxCell id="dWN9boZSqBaFcRG3zX7V-4" value="バリデーションチェック" style="rounded=1;whiteSpace=wrap;html=1;fontSize=12;glass=0;strokeWidth=1;shadow=0;" vertex="1" parent="1">
          <mxGeometry x="600" y="586" width="120" height="40" as="geometry" />
        </mxCell>
        <mxCell id="dWN9boZSqBaFcRG3zX7V-5" style="edgeStyle=orthogonalEdgeStyle;rounded=0;orthogonalLoop=1;jettySize=auto;html=1;exitX=0.5;exitY=1;exitDx=0;exitDy=0;entryX=0.5;entryY=0;entryDx=0;entryDy=0;" edge="1" parent="1">
          <mxGeometry relative="1" as="geometry">
            <mxPoint x="659.5" y="400" as="sourcePoint" />
            <mxPoint x="659.5" y="449" as="targetPoint" />
          </mxGeometry>
        </mxCell>
        <mxCell id="dWN9boZSqBaFcRG3zX7V-6" style="edgeStyle=orthogonalEdgeStyle;rounded=0;orthogonalLoop=1;jettySize=auto;html=1;exitX=0.5;exitY=1;exitDx=0;exitDy=0;entryX=0.5;entryY=0;entryDx=0;entryDy=0;" edge="1" parent="1">
          <mxGeometry relative="1" as="geometry">
            <mxPoint x="659.5" y="532" as="sourcePoint" />
            <mxPoint x="659.5" y="581" as="targetPoint" />
          </mxGeometry>
        </mxCell>
        <mxCell id="dWN9boZSqBaFcRG3zX7V-7" value="" style="endArrow=none;html=1;entryX=1;entryY=0.5;entryDx=0;entryDy=0;" edge="1" parent="1" target="dWN9boZSqBaFcRG3zX7V-1">
          <mxGeometry width="50" height="50" relative="1" as="geometry">
            <mxPoint x="820" y="492" as="sourcePoint" />
            <mxPoint x="760" y="609" as="targetPoint" />
          </mxGeometry>
        </mxCell>
        <mxCell id="dWN9boZSqBaFcRG3zX7V-8" value="" style="endArrow=none;html=1;" edge="1" parent="1">
          <mxGeometry width="50" height="50" relative="1" as="geometry">
            <mxPoint x="820" y="809" as="sourcePoint" />
            <mxPoint x="820" y="492" as="targetPoint" />
          </mxGeometry>
        </mxCell>
        <mxCell id="dWN9boZSqBaFcRG3zX7V-9" value="" style="endArrow=classic;html=1;entryX=1;entryY=0.25;entryDx=0;entryDy=0;exitX=0;exitY=0.5;exitDx=0;exitDy=0;" edge="1" parent="1" source="dWN9boZSqBaFcRG3zX7V-12">
          <mxGeometry width="50" height="50" relative="1" as="geometry">
            <mxPoint x="646.67" y="698.8299999999999" as="sourcePoint" />
            <mxPoint x="540.0033333333333" y="698.4966666666667" as="targetPoint" />
          </mxGeometry>
        </mxCell>
        <mxCell id="dWN9boZSqBaFcRG3zX7V-10" value="" style="edgeStyle=orthogonalEdgeStyle;rounded=0;orthogonalLoop=1;jettySize=auto;html=1;" edge="1" parent="1" source="dWN9boZSqBaFcRG3zX7V-11" target="dWN9boZSqBaFcRG3zX7V-16">
          <mxGeometry relative="1" as="geometry" />
        </mxCell>
        <mxCell id="dWN9boZSqBaFcRG3zX7V-11" value="head.php" style="shape=parallelogram;perimeter=parallelogramPerimeter;whiteSpace=wrap;html=1;" vertex="1" parent="1">
          <mxGeometry x="598" y="773" width="120" height="60" as="geometry" />
        </mxCell>
        <mxCell id="dWN9boZSqBaFcRG3zX7V-12" value="DBへ登録" style="rounded=1;whiteSpace=wrap;html=1;fontSize=12;glass=0;strokeWidth=1;shadow=0;" vertex="1" parent="1">
          <mxGeometry x="600" y="679" width="120" height="40" as="geometry" />
        </mxCell>
        <mxCell id="dWN9boZSqBaFcRG3zX7V-13" value="DB" style="shape=cylinder;whiteSpace=wrap;html=1;boundedLbl=1;backgroundOutline=1;" vertex="1" parent="1">
          <mxGeometry x="480" y="659" width="60" height="80" as="geometry" />
        </mxCell>
        <mxCell id="dWN9boZSqBaFcRG3zX7V-14" style="edgeStyle=orthogonalEdgeStyle;rounded=0;orthogonalLoop=1;jettySize=auto;html=1;exitX=0.5;exitY=1;exitDx=0;exitDy=0;entryX=0.5;entryY=0;entryDx=0;entryDy=0;" edge="1" parent="1">
          <mxGeometry relative="1" as="geometry">
            <mxPoint x="659.5" y="719" as="sourcePoint" />
            <mxPoint x="659.5" y="772" as="targetPoint" />
          </mxGeometry>
        </mxCell>
        <mxCell id="dWN9boZSqBaFcRG3zX7V-15" style="edgeStyle=orthogonalEdgeStyle;rounded=0;orthogonalLoop=1;jettySize=auto;html=1;" edge="1" parent="1">
          <mxGeometry relative="1" as="geometry">
            <mxPoint x="820" y="809" as="sourcePoint" />
            <mxPoint x="700" y="809" as="targetPoint" />
          </mxGeometry>
        </mxCell>
        <mxCell id="dWN9boZSqBaFcRG3zX7V-16" value="header.php" style="shape=parallelogram;perimeter=parallelogramPerimeter;whiteSpace=wrap;html=1;" vertex="1" parent="1">
          <mxGeometry x="598" y="889" width="120" height="60" as="geometry" />
        </mxCell>
        <mxCell id="dWN9boZSqBaFcRG3zX7V-17" value="画面表示" style="rounded=1;whiteSpace=wrap;html=1;fontSize=12;glass=0;strokeWidth=1;shadow=0;" vertex="1" parent="1">
          <mxGeometry x="600" y="1009" width="120" height="40" as="geometry" />
        </mxCell>
        <mxCell id="dWN9boZSqBaFcRG3zX7V-18" value="" style="edgeStyle=orthogonalEdgeStyle;rounded=0;orthogonalLoop=1;jettySize=auto;html=1;" edge="1" parent="1">
          <mxGeometry relative="1" as="geometry">
            <mxPoint x="659.5" y="953" as="sourcePoint" />
            <mxPoint x="659.5" y="1009" as="targetPoint" />
          </mxGeometry>
        </mxCell>
        <mxCell id="dWN9boZSqBaFcRG3zX7V-19" value="" style="edgeStyle=orthogonalEdgeStyle;rounded=0;orthogonalLoop=1;jettySize=auto;html=1;" edge="1" parent="1" target="dWN9boZSqBaFcRG3zX7V-20">
          <mxGeometry relative="1" as="geometry">
            <mxPoint x="660" y="1049" as="sourcePoint" />
          </mxGeometry>
        </mxCell>
        <mxCell id="dWN9boZSqBaFcRG3zX7V-20" value="footer.php" style="shape=parallelogram;perimeter=parallelogramPerimeter;whiteSpace=wrap;html=1;" vertex="1" parent="1">
          <mxGeometry x="600" y="1105" width="120" height="60" as="geometry" />
        </mxCell>
        <mxCell id="dWN9boZSqBaFcRG3zX7V-21" value="no" style="text;html=1;align=center;verticalAlign=middle;resizable=0;points=[];autosize=1;" vertex="1" parent="1">
          <mxGeometry x="710" y="469" width="30" height="20" as="geometry" />
        </mxCell>
        <mxCell id="dWN9boZSqBaFcRG3zX7V-22" value="yes" style="text;html=1;align=center;verticalAlign=middle;resizable=0;points=[];autosize=1;" vertex="1" parent="1">
          <mxGeometry x="620" y="529" width="30" height="20" as="geometry" />
        </mxCell>
      </root>
    </mxGraphModel>
  </diagram>
</mxfile>
